<?xml version="1.0" encoding="UTF-8"?>
<!DOCTYPE svg PUBLIC "-//W3C//DTD SVG 1.1//EN" "http://www.w3.org/Graphics/SVG/1.1/DTD/svg11.dtd">
<!-- Creator: CorelDRAW -->
<svg xmlns="http://www.w3.org/2000/svg" xml:space="preserve" width="6.82666in" height="6.82666in" style="shape-rendering:geometricPrecision; text-rendering:geometricPrecision; image-rendering:optimizeQuality; fill-rule:evenodd; clip-rule:evenodd"
viewBox="0 0 6.82666 6.82666"
 xmlns:xlink="http://www.w3.org/1999/xlink">
 <defs>
  <style type="text/css">
   <![CDATA[
    .fil2 {fill:none}
    .fil0 {fill:#909090}
    .fil1 {fill:white}
   ]]>
  </style>
 </defs>
 <g id="Layer_x0020_1">
  <metadata id="CorelCorpID_0Corel-Layer"/>
  <path class="fil0" d="M5.97333 3.26779c0,-0.617657 -0.288213,-1.17628 -0.754185,-1.58011 -0.462823,-0.401114 -1.10133,-0.649213 -1.80581,-0.649213 -0.70448,0 -1.34299,0.248098 -1.80581,0.649213 -0.465972,0.403839 -0.754185,0.962457 -0.754185,1.58011 0,0.380118 0.109181,0.737949 0.301811,1.05121 0.184244,0.299626 0.44511,0.558335 0.759831,0.756457 -0.0587205,0.0683858 -0.152516,0.153157 -0.25461,0.234606 -0.149799,0.119496 -0.31361,0.228386 -0.410051,0.266965l-0.214835 0.085937 0.222335 0.064689c0.00255512,0.000744094 0.870685,0.261799 1.47467,-0.310713 0.103496,0.0248661 0.208492,0.0441457 0.314488,0.0574094 0.119752,0.0149882 0.242079,0.0227638 0.366358,0.0227638 0.70448,0 1.34299,-0.248098 1.80581,-0.649213 0.465972,-0.403839 0.754185,-0.962453 0.754185,-1.58011z"/>
  <g id="_492212808">
   <path id="_492213384" class="fil1" d="M3.18311 1.85533c-0.0319685,0.0299685 -0.0562953,0.0635433 -0.072815,0.100618 -0.016748,0.0375787 -0.0252008,0.0777244 -0.0252008,0.120331 0,0.0427323 0.0084252,0.0829213 0.025189,0.120445 0.0164606,0.0368386 0.0409252,0.070311 0.0732992,0.100299l0 0.000240157c0.031748,0.029248 0.0672047,0.0513937 0.106264,0.0664055 0.0389961,0.0149843 0.0803819,0.0224803 0.124071,0.0224803 0.0439331,0 0.0852953,-0.00748819 0.124091,-0.0224567 0.038752,-0.0149528 0.0740079,-0.0371811 0.10574,-0.0666693 0.0319409,-0.0296732 0.0562047,-0.0631693 0.0727598,-0.100429 0.0166929,-0.0375748 0.0250512,-0.0776969 0.0250512,-0.120315 0,-0.0428228 -0.0082874,-0.0829567 -0.0248346,-0.120303 -0.0163819,-0.0369646 -0.0406417,-0.0705512 -0.0727402,-0.100646 -0.0316063,-0.0298189 -0.0669016,-0.0522874 -0.105783,-0.0674409 -0.0387913,-0.0151181 -0.0802402,-0.0226575 -0.124283,-0.0226575 -0.0439449,0 -0.0854409,0.00754331 -0.124386,0.0226654 -0.0388937,0.0150945 -0.0743268,0.0374882 -0.106185,0.0671969l-0.00023622 0.00023622z"/>
   <path id="_492213240" class="fil1" d="M3.27017 3.18626c-0.00669291,0.0331496 -0.0128189,0.0614409 -0.0184173,0.0852953 -0.00563386,0.0240118 -0.0132087,0.0542362 -0.0224409,0.0897756l-0.000370079 0.00184646 -0.17598 0.621575c-0.00759843,0.0321654 -0.0140236,0.0617402 -0.0192559,0.0887559 -0.00551969,0.0284685 -0.00992913,0.0545472 -0.0132126,0.0782717l-4.33071e-005 -3.93701e-006c-0.00304331,0.022748 -0.00540157,0.0463346 -0.00706299,0.070689 -0.0015,0.0219567 -0.00225197,0.0451496 -0.00225197,0.0695394 0,0.0513425 0.0089685,0.097126 0.0269528,0.137366 0.0179016,0.0400748 0.0455394,0.0765512 0.082937,0.109453 0.0374921,0.0329921 0.0830591,0.0579173 0.13663,0.0747323 0.0571102,0.0179291 0.123811,0.0269134 0.20002,0.0269134 0.0514803,0 0.0992323,-0.00329528 0.143205,-0.00988189 0.0434803,-0.00651181 0.0831969,-0.0160197 0.119087,-0.0285118l0.000374016 0c0.0370709,-0.0128701 0.0857638,-0.0306575 0.146291,-0.0534528 0.0198543,-0.00747244 0.0409291,-0.0155039 0.063248,-0.0240827 -0.0202795,0.00236614 -0.0391417,0.00356693 -0.0566339,0.00356693 -0.0524764,0 -0.0985,-0.00464567 -0.137909,-0.0138858 -0.0458465,-0.0107559 -0.0837008,-0.0282087 -0.113354,-0.0522992l-3.54331e-005 4.72441e-005c-0.0332283,-0.0267913 -0.0573268,-0.0631969 -0.072374,-0.109138 -0.0124488,-0.038 -0.0186339,-0.0825315 -0.0186339,-0.133567 0,-0.0193858 0.00165748,-0.0435276 0.00501575,-0.0722717 0.00312992,-0.026874 0.00761024,-0.0567717 0.0134291,-0.0894685l0.000374016 -0.000370079c0.0062874,-0.0345984 0.0126417,-0.0662677 0.0190945,-0.0948228 0.00644882,-0.0285354 0.0136969,-0.0568701 0.0218031,-0.0850354l-0.000240157 -7.08661e-005 0.175941 -0.622882 0.000366142 -0.00147244c0.00787008,-0.0262598 0.0144016,-0.0530709 0.0195512,-0.0804724 0.00550787,-0.0293268 0.00967323,-0.0591654 0.0124488,-0.0895669 0.00258661,-0.0282205 0.00483858,-0.0564134 0.00674409,-0.0849134 0.00135433,-0.0202677 0.00204724,-0.0369291 0.00204724,-0.0499921 0,-0.0525827 -0.00895669,-0.0995433 -0.0267874,-0.140854 -0.0176142,-0.0408071 -0.0440157,-0.0769646 -0.0791181,-0.108425 -0.0359803,-0.0318661 -0.0804764,-0.0561693 -0.13348,-0.0727677 -0.056063,-0.0175591 -0.121858,-0.0263937 -0.197374,-0.0263937 -0.0425669,0 -0.0859213,0.00369291 -0.130039,0.0111299 -0.11111,0.0187362 -0.239929,0.0659961 -0.343933,0.105307 0.019937,-0.00211417 0.0394803,-0.00314961 0.058626,-0.00314961 0.053622,0 0.100055,0.00481496 0.139496,0.0145433 0.0475669,0.0117362 0.0855079,0.0310315 0.114102,0.0580197l0.000732283 0.000740157c0.0283701,0.0271614 0.0490669,0.0627638 0.0620433,0.106654 0.0109252,0.0369488 0.0164055,0.0796378 0.0164055,0.127949 0,0.0245315 -0.00154724,0.0514685 -0.00469685,0.0808346 -0.00306693,0.0285551 -0.00737008,0.0568386 -0.0129528,0.084748l-0.000366142 0z"/>
  </g>
 </g>
 <rect class="fil2" width="6.82666" height="6.82666"/>
</svg>
